<mxfile host="Electron" modified="2025-02-10T15:28:14.356Z" agent="Mozilla/5.0 (X11; Linux x86_64) AppleWebKit/537.36 (KHTML, like Gecko) draw.io/24.6.4 Chrome/124.0.6367.207 Electron/30.0.6 Safari/537.36" etag="JBWjDb9VhXT5YLrAgST3" version="24.6.4" type="device">
  <diagram name="Pagina-1" id="pWpii_KgEFbzlHwLBRRg">
    <mxGraphModel dx="794" dy="1369" grid="1" gridSize="10" guides="1" tooltips="1" connect="1" arrows="1" fold="1" page="1" pageScale="1" pageWidth="1900" pageHeight="816" math="0" shadow="0">
      <root>
        <mxCell id="0" />
        <mxCell id="1" parent="0" />
        <mxCell id="MG_rq4H3T44RkJXGbCa7-1" value="cemtral_warehouse" style="rounded=0;whiteSpace=wrap;html=1;fillColor=#f5f5f5;fontColor=#333333;strokeColor=#666666;" vertex="1" parent="1">
          <mxGeometry x="710" y="200" width="120" height="70" as="geometry" />
        </mxCell>
        <mxCell id="MG_rq4H3T44RkJXGbCa7-6" value="" style="edgeStyle=orthogonalEdgeStyle;shape=connector;rounded=0;orthogonalLoop=1;jettySize=auto;html=1;strokeColor=default;align=center;verticalAlign=middle;fontFamily=Helvetica;fontSize=11;fontColor=default;labelBackgroundColor=default;endArrow=none;endFill=0;" edge="1" parent="1" source="MG_rq4H3T44RkJXGbCa7-2" target="MG_rq4H3T44RkJXGbCa7-4">
          <mxGeometry relative="1" as="geometry" />
        </mxCell>
        <mxCell id="MG_rq4H3T44RkJXGbCa7-7" value="" style="edgeStyle=orthogonalEdgeStyle;shape=connector;rounded=0;orthogonalLoop=1;jettySize=auto;html=1;strokeColor=default;align=center;verticalAlign=middle;fontFamily=Helvetica;fontSize=11;fontColor=default;labelBackgroundColor=default;endArrow=none;endFill=0;" edge="1" parent="1" source="MG_rq4H3T44RkJXGbCa7-2" target="MG_rq4H3T44RkJXGbCa7-1">
          <mxGeometry relative="1" as="geometry" />
        </mxCell>
        <mxCell id="MG_rq4H3T44RkJXGbCa7-28" style="edgeStyle=orthogonalEdgeStyle;shape=connector;rounded=0;orthogonalLoop=1;jettySize=auto;html=1;exitX=0.5;exitY=0;exitDx=0;exitDy=0;entryX=0.5;entryY=1;entryDx=0;entryDy=0;strokeColor=default;align=center;verticalAlign=middle;fontFamily=Helvetica;fontSize=11;fontColor=default;labelBackgroundColor=default;endArrow=none;endFill=0;" edge="1" parent="1" source="MG_rq4H3T44RkJXGbCa7-2" target="MG_rq4H3T44RkJXGbCa7-26">
          <mxGeometry relative="1" as="geometry" />
        </mxCell>
        <mxCell id="MG_rq4H3T44RkJXGbCa7-29" style="edgeStyle=orthogonalEdgeStyle;shape=connector;rounded=0;orthogonalLoop=1;jettySize=auto;html=1;exitX=0.5;exitY=1;exitDx=0;exitDy=0;entryX=0.5;entryY=0;entryDx=0;entryDy=0;strokeColor=default;align=center;verticalAlign=middle;fontFamily=Helvetica;fontSize=11;fontColor=default;labelBackgroundColor=default;endArrow=none;endFill=0;" edge="1" parent="1" source="MG_rq4H3T44RkJXGbCa7-2" target="MG_rq4H3T44RkJXGbCa7-27">
          <mxGeometry relative="1" as="geometry" />
        </mxCell>
        <mxCell id="MG_rq4H3T44RkJXGbCa7-2" value="A" style="rounded=0;whiteSpace=wrap;html=1;" vertex="1" parent="1">
          <mxGeometry x="840" y="200" width="130" height="70" as="geometry" />
        </mxCell>
        <mxCell id="MG_rq4H3T44RkJXGbCa7-21" style="edgeStyle=orthogonalEdgeStyle;shape=connector;rounded=0;orthogonalLoop=1;jettySize=auto;html=1;exitX=0;exitY=0.5;exitDx=0;exitDy=0;strokeColor=default;align=center;verticalAlign=middle;fontFamily=Helvetica;fontSize=11;fontColor=default;labelBackgroundColor=default;endArrow=none;endFill=0;" edge="1" parent="1" source="MG_rq4H3T44RkJXGbCa7-3" target="MG_rq4H3T44RkJXGbCa7-8">
          <mxGeometry relative="1" as="geometry" />
        </mxCell>
        <mxCell id="MG_rq4H3T44RkJXGbCa7-3" value="entrance" style="rounded=0;whiteSpace=wrap;html=1;fillColor=#e1d5e7;strokeColor=#9673a6;" vertex="1" parent="1">
          <mxGeometry x="1260" y="200" width="130" height="70" as="geometry" />
        </mxCell>
        <mxCell id="MG_rq4H3T44RkJXGbCa7-9" value="" style="edgeStyle=orthogonalEdgeStyle;shape=connector;rounded=0;orthogonalLoop=1;jettySize=auto;html=1;strokeColor=default;align=center;verticalAlign=middle;fontFamily=Helvetica;fontSize=11;fontColor=default;labelBackgroundColor=default;endArrow=none;endFill=0;" edge="1" parent="1" source="MG_rq4H3T44RkJXGbCa7-4" target="MG_rq4H3T44RkJXGbCa7-8">
          <mxGeometry relative="1" as="geometry" />
        </mxCell>
        <mxCell id="MG_rq4H3T44RkJXGbCa7-4" value="B" style="rounded=0;whiteSpace=wrap;html=1;" vertex="1" parent="1">
          <mxGeometry x="980" y="200" width="130" height="70" as="geometry" />
        </mxCell>
        <mxCell id="MG_rq4H3T44RkJXGbCa7-8" value="C" style="rounded=0;whiteSpace=wrap;html=1;" vertex="1" parent="1">
          <mxGeometry x="1120" y="200" width="130" height="70" as="geometry" />
        </mxCell>
        <mxCell id="MG_rq4H3T44RkJXGbCa7-23" style="edgeStyle=orthogonalEdgeStyle;shape=connector;rounded=0;orthogonalLoop=1;jettySize=auto;html=1;exitX=0.5;exitY=1;exitDx=0;exitDy=0;entryX=0.5;entryY=0;entryDx=0;entryDy=0;strokeColor=default;align=center;verticalAlign=middle;fontFamily=Helvetica;fontSize=11;fontColor=default;labelBackgroundColor=default;endArrow=none;endFill=0;" edge="1" parent="1" source="MG_rq4H3T44RkJXGbCa7-10" target="MG_rq4H3T44RkJXGbCa7-8">
          <mxGeometry relative="1" as="geometry" />
        </mxCell>
        <mxCell id="MG_rq4H3T44RkJXGbCa7-30" style="edgeStyle=orthogonalEdgeStyle;shape=connector;rounded=0;orthogonalLoop=1;jettySize=auto;html=1;exitX=0;exitY=0.5;exitDx=0;exitDy=0;entryX=1;entryY=0.5;entryDx=0;entryDy=0;strokeColor=default;align=center;verticalAlign=middle;fontFamily=Helvetica;fontSize=11;fontColor=default;labelBackgroundColor=default;endArrow=none;endFill=0;" edge="1" parent="1" source="MG_rq4H3T44RkJXGbCa7-10" target="MG_rq4H3T44RkJXGbCa7-11">
          <mxGeometry relative="1" as="geometry" />
        </mxCell>
        <mxCell id="MG_rq4H3T44RkJXGbCa7-33" style="edgeStyle=orthogonalEdgeStyle;shape=connector;rounded=0;orthogonalLoop=1;jettySize=auto;html=1;exitX=0.25;exitY=0;exitDx=0;exitDy=0;entryX=1;entryY=0.5;entryDx=0;entryDy=0;strokeColor=default;align=center;verticalAlign=middle;fontFamily=Helvetica;fontSize=11;fontColor=default;labelBackgroundColor=default;endArrow=none;endFill=0;" edge="1" parent="1" source="MG_rq4H3T44RkJXGbCa7-10" target="MG_rq4H3T44RkJXGbCa7-12">
          <mxGeometry relative="1" as="geometry" />
        </mxCell>
        <mxCell id="MG_rq4H3T44RkJXGbCa7-10" value="heliport_alpha" style="rounded=0;whiteSpace=wrap;html=1;fillColor=#f5f5f5;fontColor=#333333;strokeColor=#666666;" vertex="1" parent="1">
          <mxGeometry x="1120" y="120" width="130" height="70" as="geometry" />
        </mxCell>
        <mxCell id="MG_rq4H3T44RkJXGbCa7-19" style="edgeStyle=orthogonalEdgeStyle;shape=connector;rounded=0;orthogonalLoop=1;jettySize=auto;html=1;exitX=0.5;exitY=1;exitDx=0;exitDy=0;entryX=0.5;entryY=0;entryDx=0;entryDy=0;strokeColor=default;align=center;verticalAlign=middle;fontFamily=Helvetica;fontSize=11;fontColor=default;labelBackgroundColor=default;endArrow=none;endFill=0;" edge="1" parent="1" source="MG_rq4H3T44RkJXGbCa7-11" target="MG_rq4H3T44RkJXGbCa7-4">
          <mxGeometry relative="1" as="geometry" />
        </mxCell>
        <mxCell id="MG_rq4H3T44RkJXGbCa7-11" value="neuro_&lt;span style=&quot;background-color: initial;&quot;&gt;surgery&lt;/span&gt;" style="rounded=0;whiteSpace=wrap;html=1;fillColor=#dae8fc;strokeColor=#6c8ebf;" vertex="1" parent="1">
          <mxGeometry x="980" y="120" width="130" height="70" as="geometry" />
        </mxCell>
        <mxCell id="MG_rq4H3T44RkJXGbCa7-32" style="edgeStyle=orthogonalEdgeStyle;shape=connector;rounded=0;orthogonalLoop=1;jettySize=auto;html=1;exitX=0.25;exitY=1;exitDx=0;exitDy=0;entryX=0.25;entryY=0;entryDx=0;entryDy=0;strokeColor=default;align=center;verticalAlign=middle;fontFamily=Helvetica;fontSize=11;fontColor=default;labelBackgroundColor=default;endArrow=none;endFill=0;dashed=1;" edge="1" parent="1" source="MG_rq4H3T44RkJXGbCa7-12" target="MG_rq4H3T44RkJXGbCa7-4">
          <mxGeometry relative="1" as="geometry">
            <Array as="points">
              <mxPoint x="990" y="50" />
              <mxPoint x="990" y="200" />
            </Array>
          </mxGeometry>
        </mxCell>
        <mxCell id="MG_rq4H3T44RkJXGbCa7-12" value="Radiology" style="rounded=0;whiteSpace=wrap;html=1;fillColor=#dae8fc;strokeColor=#6c8ebf;" vertex="1" parent="1">
          <mxGeometry x="980" y="40" width="130" height="70" as="geometry" />
        </mxCell>
        <mxCell id="MG_rq4H3T44RkJXGbCa7-25" style="edgeStyle=orthogonalEdgeStyle;shape=connector;rounded=0;orthogonalLoop=1;jettySize=auto;html=1;exitX=0.5;exitY=0;exitDx=0;exitDy=0;entryX=0.5;entryY=1;entryDx=0;entryDy=0;strokeColor=default;align=center;verticalAlign=middle;fontFamily=Helvetica;fontSize=11;fontColor=default;labelBackgroundColor=default;endArrow=none;endFill=0;" edge="1" parent="1" source="MG_rq4H3T44RkJXGbCa7-24" target="MG_rq4H3T44RkJXGbCa7-8">
          <mxGeometry relative="1" as="geometry" />
        </mxCell>
        <mxCell id="MG_rq4H3T44RkJXGbCa7-24" value="day_hospital" style="rounded=0;whiteSpace=wrap;html=1;fillColor=#dae8fc;strokeColor=#6c8ebf;" vertex="1" parent="1">
          <mxGeometry x="1120" y="280" width="130" height="70" as="geometry" />
        </mxCell>
        <mxCell id="MG_rq4H3T44RkJXGbCa7-26" value="cardiology" style="rounded=0;whiteSpace=wrap;html=1;fillColor=#dae8fc;strokeColor=#6c8ebf;" vertex="1" parent="1">
          <mxGeometry x="840" y="120" width="130" height="70" as="geometry" />
        </mxCell>
        <mxCell id="MG_rq4H3T44RkJXGbCa7-27" value="dentistry" style="rounded=0;whiteSpace=wrap;html=1;fillColor=#dae8fc;strokeColor=#6c8ebf;" vertex="1" parent="1">
          <mxGeometry x="840" y="280" width="130" height="70" as="geometry" />
        </mxCell>
      </root>
    </mxGraphModel>
  </diagram>
</mxfile>
